# xmcd CD database file
#
# Track frame offsets:
#	150
#	12930
#	27435
#	40111
#	54661
#	66564
#	78732
#	89611
#	104953
#	119378
#	133241
#	146007
#	158306
#	173906
#	195903
#	209877
#	220853
#	236168
#
# Disc length: 3361 seconds
#
# Revision: 0
# Processed by: cddbd v1.5.2PL0 Copyright (c) Steve Scherf et al.
# Submitted via: CDex 1.51
#
DISCID=150d1f12
DTITLE=Glenn Miller - Masters Of Music CD4
DYEAR=2005
DGENRE=Jazz
TTITLE0=Blueberry Hill
TTITLE1=My Blue Heaven
TTITLE2=Imagination
TTITLE3=I Wouldn't Take a Million
TTITLE4=Our Love Affair
TTITLE5=Chip Off The Old Block
TTITLE6=Sierra Sue
TTITLE7=Ring Telephone, Ring
TTITLE8=Don't Sit Under The Apple Tree
TTITLE9=Under Blue Canadian Skies
TTITLE10=Little Brown Jug
TTITLE11=Helpless
TTITLE12=Frenesi
TTITLE13=Anvill Chorus
TTITLE14=A Million Dreams Ago
TTITLE15=Mister Meadowlark
TTITLE16=Jingle Bells
TTITLE17=St Louis Blues March
EXTD=YEAR: 2005
EXTT0=
EXTT1=
EXTT2=
EXTT3=
EXTT4=
EXTT5=
EXTT6=
EXTT7=
EXTT8=
EXTT9=
EXTT10=
EXTT11=
EXTT12=
EXTT13=
EXTT14=
EXTT15=
EXTT16=
EXTT17=
PLAYORDER=
